<svg xmlns="http://www.w3.org/2000/svg" width="243.681" height="74.105" viewBox="0 0 243.681 74.105">
  <g id="Group_6480" data-name="Group 6480" transform="translate(-935.609 -2046.471)">
    <g id="Group_6475" data-name="Group 6475" transform="translate(666.61 1400.531)">
      <path id="Path_1" data-name="Path 1" d="M308.225,654.731a4.724,4.724,0,1,0,4.489,4.721A4.391,4.391,0,0,0,308.225,654.731Z" transform="translate(132.857 33.599)"/>
      <path id="Path_2" data-name="Path 2" d="M296.786,654.731a4.725,4.725,0,1,0,4.465,4.721A4.413,4.413,0,0,0,296.786,654.731Z" transform="translate(89.026 33.599)"/>
      <path id="Path_3" data-name="Path 3" d="M314.231,654.7a4.171,4.171,0,0,0-4.3,3.675h8.559A4.105,4.105,0,0,0,314.231,654.7Z" transform="translate(156.454 33.465)"/>
      <path id="Path_4" data-name="Path 4" d="M284.1,662.58h7.431l-3.73-8.646Z" transform="translate(57.701 30.554)"/>
      <path id="Path_5" data-name="Path 5" d="M292.76,654.731a4.725,4.725,0,1,0,4.465,4.721A4.409,4.409,0,0,0,292.76,654.731Z" transform="translate(73.658 33.599)"/>
      <path id="Path_6" data-name="Path 6" d="M313.905,649.457a2.735,2.735,0,0,0-2.816,2.513h5.627A2.732,2.732,0,0,0,313.905,649.457Z" transform="translate(160.869 13.442)"/>
      <path id="Path_7" data-name="Path 7" d="M297.364,649.467a3.092,3.092,0,1,0,2.946,3.076A2.887,2.887,0,0,0,297.364,649.467Z" transform="translate(97.095 13.48)"/>
      <path id="Path_8" data-name="Path 8" d="M288.859,649.467a3.092,3.092,0,1,0,2.946,3.076A2.888,2.888,0,0,0,288.859,649.467Z" transform="translate(64.588 13.48)"/>
      <path id="Path_9" data-name="Path 9" d="M296.584,651.565c0,.877.728,1.422,1.938,1.422a2.539,2.539,0,0,0,2.532-1.558v-1.225H298.6C297.032,650.205,296.584,650.817,296.584,651.565Z" transform="translate(105.43 16.301)"/>
      <path id="Path_10" data-name="Path 10" d="M304.849,655.644a3.091,3.091,0,1,0-2.961-3.1A2.895,2.895,0,0,0,304.849,655.644Z" transform="translate(125.702 13.48)"/>
      <path id="Path_11" data-name="Path 11" d="M301.591,655.644a3.091,3.091,0,1,0-2.966-3.1A2.9,2.9,0,0,0,301.591,655.644Z" transform="translate(113.231 13.48)"/>
      <path id="Path_12" data-name="Path 12" d="M503.262,645.94H278.421A9.423,9.423,0,0,0,269,655.362v55.265a9.419,9.419,0,0,0,9.422,9.417H503.262a9.418,9.418,0,0,0,9.417-9.417V655.362A9.422,9.422,0,0,0,503.262,645.94Zm-65.96,15.7h1.519v1.321a3.772,3.772,0,0,1,3.163-1.408c2.136,0,3.641,1.225,3.641,3.814v5.044h-1.586v-4.865c0-1.721-.863-2.57-2.368-2.57a2.607,2.607,0,0,0-2.782,2.917v4.518H437.3Zm-6.751-.087a4.481,4.481,0,1,1-4.567,4.47A4.357,4.357,0,0,1,430.551,661.553Zm-15.865,0a3.733,3.733,0,0,1,3.062,1.408V658.13h1.591v12.281h-1.524v-1.389a3.709,3.709,0,0,1-3.13,1.49,4.48,4.48,0,0,1,0-8.959Zm-28.6-3.423h1.586v12.281h-1.586Zm-26.044,3.51,2.551,6.982,2.647-6.982h1.345l2.6,7.016,2.613-7.016h1.423l-3.279,8.771h-1.524l-2.531-6.65-2.565,6.65H361.8l-3.26-8.771Zm-23.787-2.816h4.88c3.727,0,6.259,2.348,6.259,5.8s-2.532,5.791-6.259,5.791h-4.88Zm-32.905,3.824a10.678,10.678,0,0,1,7.05-3.617.384.384,0,0,1,.4.342A10.543,10.543,0,0,1,308.318,667a9.029,9.029,0,0,1-6.654,3.414c-.164,0-.333-.01-.492-.019a.386.386,0,0,1-.352-.333A10.005,10.005,0,0,1,303.351,662.648Zm16.983,30.673a25.955,25.955,0,0,1-3.216,6.592c-1.847,2.7-3.939,5.752-7.349,5.815a8.217,8.217,0,0,1-3.718-.892,8.9,8.9,0,0,0-3.882-.935,9.4,9.4,0,0,0-4.079.969,9.161,9.161,0,0,1-3.443.916l-.169,0c-3.028,0-5.237-2.835-7.421-5.989-4.369-6.312-6.881-16.723-2.932-23.58a11.7,11.7,0,0,1,9.842-5.96h.121a13.1,13.1,0,0,1,4.769,1.21,8.548,8.548,0,0,0,2.705.791,8.755,8.755,0,0,0,2.614-.781,15.175,15.175,0,0,1,5.463-1.365c.256,0,.511.014.757.039a11.052,11.052,0,0,1,8.7,4.726.38.38,0,0,1,.058.289.373.373,0,0,1-.169.246l-.039.024a10.06,10.06,0,0,0-4.75,8.41,9.76,9.76,0,0,0,5.922,8.945l.029.014a.385.385,0,0,1,.2.468Zm32.086,7.271-1.977-4.576h-9.89l-1.948,4.576h-3.785l8.9-19.775h3.616l8.931,19.775Zm1.027-30.08a4.48,4.48,0,1,1,4.552-4.49A4.377,4.377,0,0,1,353.447,670.513Zm13.367,30.277a6.187,6.187,0,0,1-4.827-2.035v7.32h-3.535V685.5h3.361v1.977a6.236,6.236,0,0,1,5-2.146,7.728,7.728,0,0,1,0,15.455Zm9.591-34.9v4.518h-1.586V661.64h1.519v1.321a3.772,3.772,0,0,1,3.163-1.408c2.136,0,3.641,1.225,3.641,3.814v5.044h-1.587v-4.865c0-1.721-.863-2.57-2.368-2.57A2.607,2.607,0,0,0,376.4,665.893Zm9.8,34.9a6.2,6.2,0,0,1-4.832-2.035v7.32h-3.53V685.5h3.361v1.977a6.229,6.229,0,0,1,5-2.146,7.728,7.728,0,0,1,0,15.455Zm8.25-30.277a4.48,4.48,0,1,1,4.552-4.49A4.378,4.378,0,0,1,394.458,670.513Zm5.984-2.58c0-1.408.911-2.565,3.53-2.565h2.512v-.318c0-1.341-.776-2.117-2.348-2.117a4.428,4.428,0,0,0-2.782.94l-.661-1.191a5.865,5.865,0,0,1,3.621-1.128c2.4,0,3.756,1.162,3.756,3.563v5.295h-1.5v-1.157a3.267,3.267,0,0,1-2.884,1.259C401.7,670.513,400.442,669.452,400.442,667.933Zm11.067,32.944c-3.081,0-6.158-.96-7.8-2.373l1.273-2.854a10.969,10.969,0,0,0,6.524,2.175c3.081,0,4.378-1.1,4.378-2.57,0-4.268-11.751-1.471-11.751-8.815,0-3.192,2.541-5.907,7.966-5.907a12.512,12.512,0,0,1,6.582,1.75l-1.157,2.854a10.97,10.97,0,0,0-5.454-1.552c-3.052,0-4.292,1.186-4.292,2.681,0,4.215,11.722,1.471,11.722,8.733C419.5,698.162,416.934,700.877,411.509,700.877Zm16.993-.087c-3.3,0-5.2-1.75-5.2-5.083v-7.262H420.82V685.62H423.3v-3.448h3.535v3.448h4.041v2.826h-4.041v7.175c0,1.471.733,2.261,2.088,2.261a3.162,3.162,0,0,0,1.977-.622l.993,2.512A5.55,5.55,0,0,1,428.5,700.79Zm12.581,0c-4.634,0-8.024-3.221-8.024-7.739s3.39-7.715,8.024-7.715c4.692,0,8.053,3.192,8.053,7.715S445.774,700.79,441.082,700.79Zm10.681-39.15h1.485v-1.919h1.591v1.919h2.517v1.307H454.84v4.75a1.294,1.294,0,0,0,1.374,1.475,1.987,1.987,0,0,0,1.239-.415l.5,1.143a3,3,0,0,1-1.924.613,2.5,2.5,0,0,1-2.782-2.749v-4.817h-1.485Zm9.5,27.056a4.763,4.763,0,0,0-.82-.082c-2.681,0-4.378,1.582-4.378,4.663v7.315h-3.53V685.5H455.9v2.2c1.017-1.582,2.855-2.373,5.367-2.373Zm.183-22.8v4.518h-1.586V658.13h1.586v4.75a3.822,3.822,0,0,1,3.1-1.326c2.131,0,3.641,1.225,3.641,3.814v5.044h-1.586v-4.865c0-1.721-.863-2.57-2.368-2.57A2.611,2.611,0,0,0,461.451,665.893Zm16.8,28.286H466.417c.424,2.2,2.261,3.616,4.885,3.616a5.4,5.4,0,0,0,4.1-1.639l1.9,2.175a7.656,7.656,0,0,1-6.076,2.459c-5.058,0-8.337-3.25-8.337-7.739a7.506,7.506,0,0,1,7.8-7.715c4.407,0,7.628,3.082,7.628,7.8C478.313,693.417,478.284,693.842,478.255,694.179Zm.825-27.62h-7.122a2.972,2.972,0,0,0,3.178,2.565,3.278,3.278,0,0,0,2.536-1.061l.873,1.027a4.78,4.78,0,0,1-8.173-3.067,4.3,4.3,0,0,1,4.4-4.47,4.233,4.233,0,0,1,4.34,4.523C479.114,666.207,479.094,666.4,479.08,666.559Z" transform="translate(0 0)"/>
      <path id="Path_13" data-name="Path 13" d="M291.121,653.265c0-2.6-1.837-4.354-4.7-4.354H283.29v8.708h3.129C289.284,657.619,291.121,655.859,291.121,653.265Z" transform="translate(54.62 11.355)"/>
    </g>
  </g>
</svg>
