<svg xmlns="http://www.w3.org/2000/svg" width="243.681" height="74.105" viewBox="0 0 243.681 74.105">
  <g id="Group_6481" data-name="Group 6481" transform="translate(-319.077 -623.635)">
    <g id="Group_6482" data-name="Group 6482" transform="translate(409.003 661.965)">
      <g id="Group_6481-2" data-name="Group 6481">
        <path id="Path_14" data-name="Path 14" d="M349.629,632.478c-2.628,0-4.513,1.692-4.513,4.18a4.508,4.508,0,1,0,4.513-4.18Z" transform="translate(-309.481 -628.167)"/>
        <path id="Path_15" data-name="Path 15" d="M342.095,632.478a4.625,4.625,0,1,0,4.4,4.619A4.293,4.293,0,0,0,342.095,632.478Z" transform="translate(-337.726 -628.167)"/>
        <path id="Path_16" data-name="Path 16" d="M354.943,632.444a4.084,4.084,0,0,0-4.2,3.6h8.385A4.025,4.025,0,0,0,354.943,632.444Z" transform="translate(-287.994 -628.297)"/>
        <path id="Path_17" data-name="Path 17" d="M345.795,632.478a4.625,4.625,0,1,0,4.4,4.619A4.3,4.3,0,0,0,345.795,632.478Z" transform="translate(-323.604 -628.167)"/>
        <path id="Path_18" data-name="Path 18" d="M361.727,635.618c0,1.244,1.046,2.045,2.821,2.045a3.77,3.77,0,0,0,3.737-2.291v-1.716h-3.568C362.359,633.655,361.727,634.542,361.727,635.618Z" transform="translate(-245.994 -623.668)"/>
        <path id="Path_19" data-name="Path 19" d="M360.443,631.584h-4.2v7.691h4.2c3.159,0,4.789-1.413,4.789-3.848S363.6,631.584,360.443,631.584Z" transform="translate(-266.973 -631.584)"/>
      </g>
    </g>
    <g id="Group_6483" data-name="Group 6483" transform="translate(319.077 623.635)">
      <path id="Path_20" data-name="Path 20" d="M337.235,629.259c0,.877.728,1.422,1.939,1.422a2.539,2.539,0,0,0,2.531-1.558V627.9h-2.45C337.684,627.9,337.235,628.512,337.235,629.259Z" transform="translate(-249.677 -607.338)"/>
      <path id="Path_21" data-name="Path 21" d="M335.694,626.657l-2.5,5.679h5Z" transform="translate(-265.124 -612.085)"/>
      <path id="Path_22" data-name="Path 22" d="M553.336,623.635H328.494a9.418,9.418,0,0,0-9.417,9.417v55.265a9.422,9.422,0,0,0,9.417,9.422H553.336a9.423,9.423,0,0,0,9.422-9.422V633.053A9.419,9.419,0,0,0,553.336,623.635ZM498.3,635.82h1.587v4.75a3.812,3.812,0,0,1,3.1-1.321c2.131,0,3.64,1.225,3.64,3.81v5.049h-1.586v-4.87c0-1.717-.863-2.565-2.373-2.565a2.608,2.608,0,0,0-2.782,2.912v4.523H498.3Zm-52.261,0h1.586v12.287h-1.586Zm-18.16,4.8a4.451,4.451,0,0,0-2.787.94l-.656-1.191a5.86,5.86,0,0,1,3.621-1.124c2.4,0,3.756,1.157,3.756,3.559v5.3h-1.5v-1.158a3.265,3.265,0,0,1-2.884,1.254c-1.987,0-3.245-1.056-3.245-2.58,0-1.408.906-2.565,3.525-2.565h2.517v-.318C430.229,641.4,429.453,640.623,427.881,640.623Zm-11.447-5.049a1.025,1.025,0,0,1,1.07,1.008,1.076,1.076,0,0,1-2.151.034A1.049,1.049,0,0,1,416.434,635.575Zm.791,3.756v8.776h-1.587v-8.776Zm-60.589,8.245,10.218,5.9-7.32,7.074L334.242,636.1Zm-23.883-10.488,25.523,24.674-25.547,24.7Zm23.922,37.829-22.056,12.151,24.915-24.086,6.659,6.437Zm21.039-12.147-9.943,5.738-6.977-6.746,7.633-7.383,9.287,5.362a1.75,1.75,0,0,1,0,3.028Zm11.124-26.256h1.639l5.266,11.592H394l-1.273-2.9h-6.163l-1.268,2.9h-1.712Zm6.138,38.894a7.9,7.9,0,0,0,3.988-.993v-6.033h3.4V676.1a12.283,12.283,0,0,1-7.585,2.464c-6,0-10.425-4.176-10.425-9.957s4.427-9.962,10.483-9.962a10,10,0,0,1,7.773,3.154l-2.266,2.213A7.185,7.185,0,0,0,395,661.8c-4.118,0-7.026,2.8-7.026,6.809A6.667,6.667,0,0,0,394.976,675.409Zm5.724-27.3h-1.62l-3.843-8.776h1.659l3.009,7.035,3.081-7.035h1.558Zm8.058-7.484a4.427,4.427,0,0,0-2.782.94l-.661-1.191a5.86,5.86,0,0,1,3.621-1.124c2.4,0,3.756,1.157,3.756,3.559v5.3h-1.5v-1.158a3.264,3.264,0,0,1-2.884,1.254c-1.987,0-3.245-1.056-3.245-2.58,0-1.408.911-2.565,3.53-2.565h2.512v-.318C411.105,641.4,410.329,640.623,408.757,640.623Zm4.615,37.857c-4.542,0-7.86-3.158-7.86-7.585s3.317-7.546,7.86-7.546c4.591,0,7.884,3.12,7.884,7.546S417.962,678.481,413.372,678.481Zm8.467-30.374h-1.587V635.82h1.587Zm9.355,30.374c-4.537,0-7.86-3.158-7.86-7.585s3.322-7.546,7.86-7.546c4.591,0,7.884,3.12,7.884,7.546S435.785,678.481,431.194,678.481Zm5.087-31.763v1.389h-1.524V635.82h1.591v4.836a3.738,3.738,0,0,1,3.062-1.408,4.477,4.477,0,0,1,0,8.954A3.711,3.711,0,0,1,436.281,646.718Zm20.754,29.328c0,5.367-2.8,7.8-7.971,7.8a11.736,11.736,0,0,1-7.19-2.107l1.548-2.6a8.924,8.924,0,0,0,5.449,1.774c3.269,0,4.706-1.495,4.706-4.484v-.771a6.511,6.511,0,0,1-4.957,1.962c-4.229,0-7.464-2.879-7.464-7.166s3.236-7.108,7.464-7.108a6.393,6.393,0,0,1,5.121,2.127v-1.962h3.293Zm1.519-31.8h-7.122a2.974,2.974,0,0,0,3.182,2.566,3.275,3.275,0,0,0,2.532-1.061l.878,1.027a4.784,4.784,0,0,1-8.178-3.062,4.3,4.3,0,0,1,4.4-4.47,4.231,4.231,0,0,1,4.34,4.518C458.588,643.9,458.568,644.1,458.554,644.249Zm6.452,34.039h-3.457V657.761h3.457Zm-.584-34.569a4.56,4.56,0,1,1,4.566,4.484A4.365,4.365,0,0,1,464.422,643.719ZM483.363,672H471.776c.415,2.16,2.213,3.539,4.783,3.539a5.275,5.275,0,0,0,4.012-1.6l1.852,2.131a7.479,7.479,0,0,1-5.946,2.406c-4.952,0-8.164-3.182-8.164-7.585a7.345,7.345,0,0,1,7.638-7.546c4.316,0,7.469,3.014,7.469,7.633C483.421,671.262,483.392,671.672,483.363,672Zm.7-23.9h-1.586v-4.87c0-1.717-.863-2.565-2.368-2.565a2.606,2.606,0,0,0-2.782,2.912v4.523h-1.591v-8.776h1.524v1.326a3.76,3.76,0,0,1,3.163-1.408c2.136,0,3.641,1.225,3.641,3.81Zm7.619-2.652v-4.817h-1.49v-1.307h1.49v-1.919h1.591v1.919h2.517v1.307h-2.517v4.75a1.291,1.291,0,0,0,1.369,1.476,1.964,1.964,0,0,0,1.244-.415l.5,1.143a3,3,0,0,1-1.924.612A2.5,2.5,0,0,1,491.681,645.455Zm10.96,27.24h-4.373v5.594h-3.6V658.923h7.971c5.087,0,8.246,2.6,8.246,6.886C510.887,670.066,507.729,672.694,502.642,672.694Zm6.168-28.976a4.3,4.3,0,0,1,4.4-4.47,4.23,4.23,0,0,1,4.335,4.518c0,.135-.019.333-.029.482H510.4a2.973,2.973,0,0,0,3.178,2.566,3.278,3.278,0,0,0,2.536-1.061l.873,1.027a4.78,4.78,0,0,1-8.173-3.062Zm9.051,34.569H514.4V657.761h3.457Zm16.892,0h-3.264v-1.8c-.834,1.268-2.435,1.991-4.648,1.991-3.375,0-5.507-1.852-5.507-4.426,0-2.464,1.659-4.4,6.143-4.4h3.819v-.222c0-2.02-1.22-3.211-3.684-3.211a7.324,7.324,0,0,0-4.48,1.466l-1.36-2.517a10.409,10.409,0,0,1,6.254-1.823c4.263,0,6.727,2.016,6.727,6.278Zm11.047,1.191c-1.36,3.346-3.24,4.369-5.7,4.369a6.13,6.13,0,0,1-3.954-1.355l1.384-2.551a3.73,3.73,0,0,0,2.541,1.027c1.22,0,1.943-.583,2.6-2.05l.246-.579-6.442-14.827h3.592l4.648,10.927,4.677-10.927h3.318Z" transform="translate(-319.077 -623.635)"/>
      <path id="Path_23" data-name="Path 23" d="M349.341,627.151a2.739,2.739,0,0,0-2.816,2.517h5.627A2.729,2.729,0,0,0,349.341,627.151Z" transform="translate(-214.17 -610.197)"/>
      <path id="Path_24" data-name="Path 24" d="M361.569,627.151a2.736,2.736,0,0,0-2.816,2.517h5.628A2.732,2.732,0,0,0,361.569,627.151Z" transform="translate(-167.434 -610.197)"/>
      <path id="Path_25" data-name="Path 25" d="M355.459,630.242a2.957,2.957,0,1,0-2.946,3.1A2.878,2.878,0,0,0,355.459,630.242Z" transform="translate(-202.601 -610.158)"/>
      <path id="Path_26" data-name="Path 26" d="M346.34,627.161a3.091,3.091,0,1,0,2.961,3.081A2.888,2.888,0,0,0,346.34,627.161Z" transform="translate(-226.137 -610.158)"/>
      <path id="Path_27" data-name="Path 27" d="M341.2,629.259c0,.877.728,1.422,1.938,1.422a2.539,2.539,0,0,0,2.532-1.558V627.9h-2.45C341.65,627.9,341.2,628.512,341.2,629.259Z" transform="translate(-234.519 -607.338)"/>
    </g>
  </g>
</svg>
